<?xml version="1.0" encoding="iso-8859-1"?>
<!-- Generator: Adobe Illustrator 22.0.0, SVG Export Plug-In . SVG Version: 6.00 Build 0)  -->
<svg version="1.1" id="&#x56FE;&#x5C42;_1" xmlns="http://www.w3.org/2000/svg" xmlns:xlink="http://www.w3.org/1999/xlink" x="0px"
	 y="0px" viewBox="0 0 441.601 138.333" style="enable-background:new 0 0 441.601 138.333;" xml:space="preserve">
<g>
	<rect x="-52.478" y="-51.331" style="display:none;fill:#FFFFFF;" width="510.333" height="233.667"/>
	<rect x="-86.12" y="-57" style="display:none;fill:#FFFFFF;" width="543.976" height="257"/>
	<path style="fill:#FFFFFF;" d="M400.345,60.154c0,4.651,0.135,8.769-0.047,12.872c-0.123,2.772,0.838,3.713,3.642,3.682
		c11.12-0.126,22.245,0.093,33.362-0.136c3.585-0.073,4.791,1.127,4.319,4.511c-0.137,0.981-0.089,2.002-0.009,2.995
		c0.181,2.235-0.733,3.182-3.032,3.108c-3.62-0.115-7.246-0.029-10.87-0.029c-27.241,0-54.483,0.023-81.725-0.066
		c-1.366-0.005-3.846-0.884-3.902-1.524c-0.245-2.768,0.111-5.615,0.566-8.382c0.056-0.337,2.022-0.503,3.103-0.506
		c11.744-0.035,23.487-0.022,35.535-0.022c0-5.399,0-10.689,0-16.502c-2.842,0-5.788,0-8.733,0c-7.998,0-15.996,0.055-23.992-0.046
		c-1.622-0.021-3.236-0.629-4.819-0.96c1.066-7.245,1.066-7.245,7.811-7.245c9.853,0,19.705,0,29.797,0c0-5.032,0-9.819,0-15.002
		c-8.551,0-17.01,0-25.469,0c-1.75,0-3.499,0-5.249,0c-7.741,0-7.741,0-7.061-8.092c1.157-0.052,2.361-0.152,3.565-0.153
		c29.99-0.009,59.981-0.008,89.972-0.005c3.99,0,6.35,3.846,4.15,7.113c-0.55,0.817-2.365,1.081-3.604,1.09
		c-10.871,0.081-21.742,0.047-32.614,0.047c-1.369,0-2.738,0-4.401,0c0,4.919,0,9.709,0,15.002c1.254,0,2.576,0,3.898,0
		c11.121,0,22.243,0.065,33.364-0.047c2.681-0.027,3.82,0.676,3.776,3.569c-0.043,2.82-0.264,4.797-3.838,4.765
		c-10.995-0.101-21.992-0.036-32.989-0.036C403.501,60.154,402.149,60.154,400.345,60.154z"/>
	<path style="fill:#FFFFFF;" d="M232.615,86.098c9.645-4.012,19.289-8.022,29.989-12.473c-6-2.481-11.056-4.709-16.215-6.669
		c-6.525-2.479-6.552-2.385-6.571-9.419c-0.012-3.893,0.166-7.81-0.238-11.665c-0.113-1.083-1.841-2.292-3.092-2.871
		c-1.022-0.474-2.439-0.096-4.159-0.096c0-3.119-0.269-6.115,0.16-9.007c0.133-0.894,2.079-1.867,3.345-2.162
		c1.801-0.419,4.292,0.48,3.418-3.009c-0.084-0.334,1.275-1.421,2.031-1.498c2.089-0.211,4.213-0.073,6.699-0.073
		c-0.688,4.385,1.812,4.583,5.099,4.554c15.496-0.136,30.994-0.066,46.491-0.054c2.225,0.001,4.38,0.153,3.717-3.289
		c-0.095-0.491,1.449-1.823,2.29-1.875c3.485-0.217,7.008,0.113,10.487-0.149c3.66-0.276,5.644,0.709,4.738,4.638
		c0.338,0.27,0.511,0.521,0.721,0.559c1.904,0.338,5.261,0.254,5.464,1.019c0.745,2.804,0.578,5.895,0.412,8.858
		c-0.03,0.541-1.717,1.485-2.549,1.397c-3.54-0.372-4.211,1.339-4.073,4.422c0.207,4.615-0.121,9.255,0.119,13.867
		c0.143,2.763-1.274,3.561-3.481,4.335c-6.639,2.329-13.21,4.854-19.808,7.302c-0.011,0.333-0.022,0.666-0.033,0.999
		c10.11,4.081,20.222,8.161,31.31,12.637c-1.816,0.386-2.748,0.751-3.681,0.756c-8.373,0.045-16.773,0.424-25.108-0.146
		c-4.004-0.274-8.042-2.029-11.782-3.734c-5.591-2.548-10.797-4.264-16.737-0.651c-9.747,5.928-20.738,4.521-31.439,4.558
		c-2.506,0.009-5.011,0.001-7.516,0.001C232.62,86.805,232.618,86.451,232.615,86.098z M275.963,42.902
		c-8.001,0-16.001-0.024-24.001,0.029c-1.029,0.006-2.394,0.072-3.022,0.695c-2.236,2.214-0.755,10.064,2.075,11.24
		c8.573,3.56,17.132,7.167,25.826,10.408c1.967,0.734,4.574,0.497,6.683-0.064c3.402-0.903,6.636-2.443,9.937-3.719
		c10.618-4.104,10.617-4.105,10.119-14.844c-0.006-0.125-0.002-0.25-0.003-0.375c-0.022-2.391-1.012-3.467-3.614-3.421
		C291.965,42.991,283.963,42.902,275.963,42.902z"/>
	<path style="fill:#FFFFFF;" d="M30.585,85.657c0-9.396,0-18.253,0-27.227c-1.201-0.688-2.344-1.344-3.078-1.764
		c-0.249-2.345-0.615-4.318-0.602-6.288c0.006-0.966,0.532-2.611,1.137-2.774c2.892-0.772,2.521-2.873,2.511-4.97
		c-0.028-6.248,0.076-12.499-0.051-18.744c-0.051-2.535,0.704-3.55,3.398-3.538c19.745,0.086,39.49,0.083,59.234,0.002
		c2.621-0.01,3.527,0.864,3.462,3.475c-0.143,5.745-0.11,11.497-0.012,17.244c0.04,2.303-0.816,4.768,1.881,6.624
		c1.358,0.935-0.009,8.219-1.14,9.956c-0.551,0.846-0.728,2.059-0.741,3.11c-0.07,5.498-0.013,10.997-0.039,16.496
		c-0.028,5.933-2.463,8.396-8.258,8.397c-17.871,0.004-35.741,0.001-53.611,0.001C33.45,85.657,32.223,85.657,30.585,85.657z
		 M50.993,35.401c1.77,0,2.66,0.139,3.492-0.022c6.121-1.187,10.199,1.152,12.099,7.064c1.472,4.58,4.814,5.347,9.029,5.015
		c1.992-0.157,2.99-0.682,2.957-2.829c-0.075-4.866-0.073-9.735,0.001-14.601c0.032-2.066-0.768-2.909-2.861-2.899
		c-11.107,0.05-22.215,0.05-33.322-0.001c-2.09-0.009-2.927,0.824-2.864,2.895c0.086,2.868,0.021,5.74,0.021,8.611
		c-0.001,8.769-0.001,8.769,8.929,8.769c2.484,0,4.967,0,8.166,0C54.491,42.838,52.901,39.457,50.993,35.401z M52.656,62.864
		c3.425-0.454,6.22-1.106,9.004-1.067c1.275,0.018,3.06,1.099,3.691,2.218c1.669,2.959,2.747,6.246,4.258,9.305
		c0.393,0.794,1.461,1.645,2.309,1.748c2.057,0.253,4.167,0.082,6.629,0.082c0-5.155-0.092-9.989,0.038-14.817
		c0.067-2.488-0.941-3.234-3.322-3.215c-10.604,0.084-21.208,0.061-31.813,0.02c-2.6-0.01-3.951,1.025-3.919,3.734
		c0.047,3.992,0.089,7.986-0.018,11.975c-0.061,2.249,0.783,3.148,3.061,3.089c4.239-0.108,8.483,0.016,12.724-0.064
		c0.993-0.019,1.977-0.466,3.237-0.784C56.487,70.827,54.65,67.008,52.656,62.864z"/>
	<path style="fill:#FFFFFF;" d="M115.604,1.648c14.589,0,28.94,0.021,43.292-0.023c2.039-0.006,3.038,0.699,2.93,2.827
		c-0.082,1.617-0.016,3.242-0.016,5.447c-3.045,0-5.985,0.084-8.919-0.027c-2.232-0.085-3.146,0.742-3.109,3.041
		c0.162,9.856-1.036,8.068,7.628,8.234c1.341,0.025,2.683,0.003,4.402,0.003c0,8.673,0,17.005,0,25.337
		c0,3.248-0.123,6.5,0.024,9.742c0.328,7.177-0.677,7.33-7.112,8.125c-4.607,0.569-5.385,2.173-4.932,5.941
		c0.118,0.985,0.05,1.998,0.012,2.995c-0.105,2.733,0.532,3.801,3.72,2.838c2.389-0.721,5.171-0.142,8.278-0.142
		c0,2.559,0.236,5.042-0.126,7.435c-0.129,0.857-1.695,2.13-2.617,2.14c-12.738,0.142-25.481,0.203-38.219,0.016
		c-2.991-0.044-5.522-1.612-5.524-5.225c-0.015-25.731-0.002-51.461,0.012-77.191C115.328,2.804,115.453,2.449,115.604,1.648z
		 M139.9,64.654c-2.13,0-3.98-0.036-5.827,0.009c-2.674,0.064-3.79-1.236-3.782-3.867c0.038-12.225,0.04-24.45-0.006-36.675
		c-0.007-1.992,0.61-2.887,2.76-3.015c7.046-0.419,7.042-0.496,7.013-7.641c-0.004-1.083,0-2.166,0-3.326c-4.191,0-7.974,0-12.001,0
		c0,1.592,0,2.945,0,4.297c0,18.088,0.011,36.177-0.021,54.265c-0.002,1.459-0.627,2.978-0.366,4.356
		c0.198,1.042,1.255,2.626,2.089,2.733c9.985,1.292,10.497,0.78,10.292-9.131C140.04,66.17,139.979,65.682,139.9,64.654z
		 M137.815,54.152c3.846,0,7.097-0.109,10.336,0.035c2.519,0.112,3.26-0.984,3.192-3.349c-0.122-4.369-0.034-8.743-0.034-13.116
		c0-10.81,0-10.809-10.888-9.82c-0.124,0.011-0.304-0.05-0.366,0.014c-0.757,0.771-2.126,1.545-2.142,2.343
		C137.751,38.094,137.815,45.934,137.815,54.152z"/>
	<path style="fill:#FFFFFF;" d="M194.065,18.899c5.858,0,11.332,0.099,16.8-0.043c2.586-0.067,3.519,0.792,3.499,3.441
		c-0.101,13.501-0.082,27.003-0.013,40.504c0.013,2.323-0.595,3.493-3.156,3.389c-3.586-0.145-7.184-0.037-11.129-0.037
		c0-10.327,0-20.293,0-30.26c0-9.495,0-9.495-9.357-9.495c-4.876,0-9.758,0.149-14.624-0.057c-2.825-0.119-3.779,1.092-3.776,3.651
		c0.014,10.626-0.057,21.253,0.032,31.878c0.043,5.065,0.07,5.173-4.966,5.022c-0.478-0.015-0.955-0.102-1.813-0.197
		c0-3.785,0.048-7.504-0.009-11.221c-0.173-11.323-0.462-22.645-0.438-33.968c0.003-0.872,2.06-2.411,3.237-2.489
		c4.481-0.297,8.996-0.214,13.492-0.08c2.024,0.06,3.477-0.888,2.929-2.597c-0.707-2.202,2.668-6.511-2.967-6.454
		c-4.5,0.045-9.001,0-13.502,0.012c-2.156,0.006-4.274,0.047-2.803-3.177c0.187-0.407,0.152-1.048-0.032-1.471
		c-1.31-3.008,0.729-3.556,2.833-3.566c14.377-0.073,28.754-0.047,43.13-0.032c3.604,0.003,2.694,2.76,2.89,4.842
		c0.212,2.266-0.453,3.529-3.075,3.439c-4.245-0.146-8.512,0.161-12.746-0.102c-3.388-0.209-4.983,0.763-4.467,4.36
		C194.227,15.539,194.065,16.935,194.065,18.899z"/>
	<path style="fill:#FFFFFF;" d="M232.328,24.675c0-6.208,0.013-11.558-0.005-16.907c-0.008-2.416,1.632-2.381,3.347-2.378
		c9.865,0.016,19.731,0.034,29.597-0.028c1.162-0.007,2.897-0.106,3.385-0.828c2.798-4.125,6.873-3.787,10.985-3.65
		c2.206,0.073,4.417,0.013,7.03,0.013c0,1.052,0,2.41,0,4.501c6.867,0,13.651,0,20.436,0c6.708,0,13.416,0,20.301,0
		c0,6.063,0,11.76,0,17.972c-5.306,0-10.623,0.093-15.929-0.118c-0.662-0.026-1.662-1.607-1.805-2.571
		c-0.285-1.928-0.085-3.927-0.085-6.084c-20.115,0-39.902,0-60.098,0c1.167,4.895-1.522,6.204-5.618,6.865
		C240.117,22.066,236.495,23.478,232.328,24.675z"/>
	<path style="fill:#FFFFFF;" d="M339.998,20.399c3.933-2.342,6.939-4.272,10.071-5.971c7.944-4.309,15.894-8.617,23.961-12.686
		c1.987-1.002,4.424-1.457,6.674-1.526c6.485-0.198,12.999,0.234,19.466-0.161c5.692-0.347,9.73,3.045,14.192,5.375
		c8.016,4.185,15.811,8.792,23.683,13.249c0.543,0.308,0.963,0.832,1.959,1.716c-9.086,0-17.463,0.323-25.792-0.173
		c-2.968-0.177-5.898-2.184-8.702-3.634c-4.762-2.462-9.348-5.269-14.151-7.637c-1.057-0.521-2.97-0.242-4.056,0.4
		c-5.049,2.982-9.885,6.324-14.932,9.308c-1.597,0.944-3.604,1.627-5.438,1.663C358.379,20.494,349.819,20.399,339.998,20.399z"/>
	<path style="fill:#FFFFFF;" d="M163.213,85.657c2.476-3.477,4.273-6.178,6.252-8.739c3.006-3.893,6.322-7.559,9.126-11.586
		c1.164-1.673,1.823-4.015,1.887-6.078c0.223-7.243,0.188-14.5,0.035-21.747c-0.059-2.796,0.886-3.83,3.673-3.648
		c2.852,0.187,5.725,0.042,9.13,0.042c0,4.112,0,8.058,0,12.004c0,2.75,0.305,5.542-0.063,8.242
		c-0.785,5.759,1.544,9.77,5.652,13.672c5.313,5.046,9.924,10.83,14.924,16.394c-8.618,2.842-14.146-0.967-18.858-7.072
		c-2.019-2.616-4.353-4.988-6.891-7.864c-3.888,4.782-7.701,8.963-10.865,13.588c-1.514,2.211-2.976,2.962-5.422,2.825
		C169.311,85.549,166.815,85.657,163.213,85.657z"/>
	<path style="fill:#FFFFFF;" d="M29.043,8.737c0.707-0.163,1.067-0.348,1.399-0.307c3.805,0.478,6.896-0.209,9.026-3.967
		c1.719-3.034,4.679-4.014,8.274-3.636c3.173,0.332,6.408,0.069,10.038,0.069c-2.175,4.593,0.422,4.554,3.419,4.533
		c11.116-0.08,22.232-0.07,33.348,0.018c1.352,0.011,3.787,0.562,3.854,1.098c0.266,2.11-0.022,4.368-0.596,6.434
		c-0.102,0.364-2.558,0.089-3.927,0.077c-0.493-0.004-0.984-0.146-1.477-0.147c-13.989-0.009-27.978-0.027-41.967,0.038
		c-0.873,0.004-2.286,0.465-2.528,1.077c-2.115,5.357-7.131,4.266-11.073,4.748c-7.828,0.957-7.863,0.66-7.792-7.152
		C29.05,10.648,29.043,9.677,29.043,8.737z"/>
	<path style="fill:#FFFFFF;" d="M141.558,120.478c0-8.441,5.391-13.479,13.81-13.918c7.474-0.389,13.958,6.346,13.941,13.549
		c-0.021,8.636-6.48,14.377-13.953,14.316C147.281,134.361,141.558,128.618,141.558,120.478z"/>
	<path style="fill:#FFFFFF;" d="M332.887,136.481c-2.096,0-3.801,0-5.781,0c0-10.239,0-20.527,0-31.258
		c7.383,0,14.85-0.396,22.239,0.186c3.17,0.249,6.295,2.55,6.693,6.449c0.378,3.698,0.487,6.858-4.777,9.186
		c-0.879,0.389-1.663,0.991-2.347,1.407c3.369,4.597,6.671,9.101,10.14,13.833c-4.96,1.083-8.577,0.567-10.609-4.353
		c-0.865-2.096-2.527-3.899-3.989-5.704c-2.99-3.69-7.067-3.37-11.568-2.814C332.887,127.708,332.887,132.01,332.887,136.481z
		 M339.872,118.657c1.615,0,3.239,0.103,4.846-0.021c2.942-0.229,5.184-2.057,5.107-4.758c-0.041-1.486-2.294-3.662-3.966-4.178
		c-2.729-0.844-5.815-0.454-8.722-0.822c-3.537-0.449-4.533,1.004-4.374,4.416c0.251,5.356,0.055,5.365,5.243,5.368
		C338.629,118.662,339.25,118.662,339.872,118.657z"/>
	<path style="fill:#FFFFFF;" d="M209.969,114.029c-2.16,0-3.889,0-5.617-0.005c-2.709-4.561-6.69-6.468-11.704-4.936
		c-1.523,0.465-3.155,2.341-3.589,3.892c-0.23,0.823,1.785,2.834,3.165,3.428c2.544,1.094,5.331,1.745,8.079,2.21
		c6.732,1.14,10.097,3.987,10.265,9.03c0.16,4.836-3.279,8.715-9.665,9.537c-3.824,0.492-7.865-0.194-11.743-0.779
		c-3.361-0.508-5.412-2.983-6.87-5.956c-1.709-3.482-1.235-4.239,2.796-4.285c0.499-0.006,0.998-0.001,1.473-0.001
		c3.089,7.085,8.463,8.269,15.403,5.684c1.188-0.442,2.382-2.547,2.408-3.906c0.021-1.143-1.432-2.938-2.618-3.361
		c-3.534-1.261-7.359-1.718-10.875-3.018c-2.387-0.884-4.982-2.219-6.539-4.124c-3.348-4.096-1.316-9.664,3.632-11.572
		c5.416-2.089,10.753-2.199,16.107,0.134C207.415,107.454,209.062,110.141,209.969,114.029z"/>
	<path style="fill:#FFFFFF;" d="M29.793,136.499c-2.216,0-3.92,0-6.001,0c0-3.618-0.104-7.086,0.036-10.544
		c0.1-2.476-0.582-3.693-3.337-3.588c-4.473,0.171-8.957,0.046-13.84,0.046c0,4.744,0,9.289,0,14.037c-2.188,0-3.974,0-6.104,0
		c0-9.729-0.135-19.314,0.063-28.894c0.086-4.202,3.623-1.468,5.933-3.057c0,3.917,0.098,7.001-0.032,10.075
		c-0.098,2.341,0.623,3.473,3.165,3.372c3.615-0.144,7.243-0.136,10.859-0.001c2.414,0.089,3.406-0.779,3.293-3.244
		c-0.141-3.083-0.034-6.178-0.034-9.21c5.974-0.688,6-0.669,6.001,4.558C29.794,118.769,29.793,127.487,29.793,136.499z"/>
	<path style="fill:#FFFFFF;" d="M312.582,105.331c2.071,0,3.774,0,5.948,0c0,7.428,0.461,14.908-0.171,22.295
		c-0.383,4.474-2.948,8.669-8.211,9.018c-4.683,0.31-9.584,0.458-14.095-0.591c-5.572-1.296-6.397-6.595-6.656-11.428
		c-0.293-5.478,0.026-10.985-0.107-16.476c-0.064-2.69,1.332-2.994,3.511-3.04c2.395-0.05,3.367,0.75,3.317,3.234
		c-0.12,5.991-0.056,11.985-0.031,17.979c0.014,3.271,2.868,6.282,6.169,6.588c5.131,0.476,8.779-1.296,9.517-4.855
		c0.471-2.268,0.726-4.611,0.774-6.928C312.659,115.918,312.582,110.705,312.582,105.331z"/>
	<path style="fill:#FFFFFF;" d="M244.152,105.164c0,1.475,0,2.435,0,3.747c-5.621,0-11.089,0.082-16.553-0.032
		c-3.072-0.065-4.306,1.08-3.57,4.166c0.169,0.708,0.189,1.537-0.004,2.233c-0.797,2.878,0.839,3.389,3.118,3.386
		c5.097-0.008,10.193-0.003,15.476-0.003c0,1.344,0,2.38,0,3.752c-5.242,0-10.338,0.092-15.428-0.039
		c-2.593-0.066-3.86,0.428-3.213,3.457c0.469,2.189-0.577,5.776,0.529,6.511c1.762,1.167,4.755,0.529,7.229,0.56
		c3.745,0.048,7.498-0.101,11.234,0.093c0.962,0.051,1.873,1.069,2.808,1.643c-0.958,0.675-1.903,1.915-2.875,1.936
		c-7.489,0.163-14.983,0.042-22.476,0.119c-2.199,0.023-3.163-0.689-3.141-3.014c0.084-8.491,0.061-16.983,0.013-25.475
		c-0.011-1.932,0.46-3.08,2.695-3.063C227.965,105.2,235.934,105.164,244.152,105.164z"/>
	<path style="fill:#FFFFFF;" d="M67.55,136.201c-6.016,1.022-5.934,0.987-8.038-3.835c-1.335-3.061-2.477-6.65-7.239-4.753
		c-0.861,0.344-2.052,0.293-2.96,0.009c-4.688-1.466-6.833,0.938-7.677,5.052c-0.877,4.273-3.578,4.644-7.766,3.536
		c2.15-5.076,4.273-10.053,6.367-15.041c1.792-4.269,3.584-8.537,5.312-12.832c0.712-1.769,1.269-3.325,3.771-3.248
		c2.415,0.073,4.629,0.009,5.787,2.643c1.963,4.464,3.976,8.906,5.929,13.376C63.218,126.1,65.356,131.111,67.55,136.201z
		 M50.386,111.113c-1.694,4.409-3.06,7.963-4.525,11.777c3.494,0,6.376,0,9.543,0C53.796,119.117,52.331,115.68,50.386,111.113z"/>
	<path style="fill:#FFFFFF;" d="M282.594,113.718c-3.346,1.4-5.753,2.174-7.898-2.141c-1.97-3.958-10.96-3.193-14.518,0.297
		c-5.215,5.113-3.565,18.656,3.388,20.576c4.838,1.337,9.742,0.214,12.255-4.028c2.36-3.986,3.387-4.14,7.404-1.104
		c-3.156,8.168-10.941,12.207-20.177,9.959c-6.214-1.513-12.777-5.598-12.035-18.498c0.409-7.107,5.371-13.316,13.016-14.245
		C272.185,103.542,279.485,104.986,282.594,113.718z"/>
	<path style="fill:#FFFFFF;" d="M7.204,86.405c-7.543,0.002-7.487,0.027-4.368-7.074c2.798-6.37,5.584-12.752,8.095-19.237
		c0.811-2.097,1.821-3.037,3.999-2.957c2.12,0.078,4.247-0.023,6.369,0.026c3.288,0.076,3.87,1.048,2.569,4.124
		c-3.281,7.762-6.514,15.543-9.886,23.265c-0.348,0.797-1.43,1.595-2.298,1.771C10.244,86.615,8.702,86.403,7.204,86.405z"/>
	<path style="fill:#FFFFFF;" d="M100.485,118.447c2.517-3.208,5.266-5.923,7.037-9.172c2.16-3.959,5.027-4.864,9.637-3.666
		c-2.839,3.726-5.358,7.419-8.275,10.765c-4.061,4.659-6.708,9.642-5.611,16.057c0.205,1.199,0.029,2.465,0.029,3.964
		c-1.973,0-3.758,0-6.001,0c0-2.416-0.293-4.914,0.062-7.316c0.71-4.81-1.609-8.185-4.508-11.557
		c-2.869-3.338-5.446-6.929-8.099-10.447c-0.249-0.331-0.123-0.944-0.17-1.413c5.714-1.183,6.46-0.859,9.698,3.895
		C96.193,112.357,98.16,115.117,100.485,118.447z"/>
	<path style="fill:#FFFFFF;" d="M426.597,136.524c-2.17,0-3.875,0-6,0c0-3.213,0.295-6.338-0.097-9.375
		c-0.297-2.293-1.053-4.759-2.34-6.646c-3.105-4.554-6.661-8.8-9.976-13.215c-0.315-0.421-0.214-1.154-0.322-1.843
		c3.625-0.655,6.51-0.613,8.582,3.201c1.79,3.296,4.488,6.099,7.241,9.719c2.277-2.959,4.795-5.608,6.567-8.687
		c2.287-3.974,5.165-5.613,10.005-4.031c-3.576,4.751-6.792,9.652-10.674,13.952c-2.422,2.683-3.228,5.354-3.019,8.73
		C426.726,130.928,426.597,133.544,426.597,136.524z"/>
	<path style="fill:#FFFFFF;" d="M25.289,54.13c-4.013,0-7.454,0.055-10.891-0.053c-0.599-0.019-1.434-0.592-1.724-1.141
		C9.125,46.237,5.689,39.478,2.15,32.773c-1.253-2.375-0.813-3.521,2.002-3.374c0.249,0.013,0.5,0.004,0.75,0
		c8.389-0.133,8.399-0.138,12.099,7.322c2.563,5.167,5.095,10.348,7.632,15.527C24.79,52.569,24.873,52.925,25.289,54.13z"/>
	<path style="fill:#FFFFFF;" d="M26.369,24.593c-0.97,0.186-1.212,0.267-1.458,0.276C13.772,25.272,13.8,25.257,8.829,15.412
		c-2.246-4.446-4.627-8.824-6.934-13.21c5.192-3.206,11.965-1.48,14.438,3.32C19.563,11.793,22.898,18.01,26.369,24.593z"/>
	<path style="fill:#FFFFFF;" d="M376.542,108.911c0-1.347,0-2.383,0-3.586c9.614,0,19.068,0,28.815,0
		c0.08,1.058,0.158,2.096,0.271,3.586c-2.709,0-5.183,0.141-7.632-0.038c-2.75-0.2-3.773,0.777-3.705,3.61
		c0.163,6.743,0.001,13.493,0.08,20.238c0.028,2.391-0.124,4.002-3.299,4.041c-3.352,0.041-3.553-1.643-3.514-4.21
		c0.102-6.745-0.06-13.494,0.08-20.238c0.055-2.643-0.895-3.606-3.491-3.437C381.683,109.036,379.201,108.911,376.542,108.911z"/>
	<path style="fill:#FFFFFF;" d="M78.557,136.469c-1.897,0-3.722,0-6.009,0c0-5.566,0-11.146,0-16.727
		c0-3.621,0.177-7.253-0.054-10.859c-0.197-3.07,1.036-3.881,3.918-3.788c3.128,0.101,2.2,1.925,2.183,3.736
		C78.512,117.885,78.557,126.94,78.557,136.469z"/>
	<path style="fill:#FFFFFF;" d="M123.062,105.306c5.741-0.313,5.743-0.313,5.744,4.942c0.001,8.705,0.001,17.409,0.001,26.262
		c-2.101,0-3.806,0-5.744,0C123.062,126.071,123.062,115.682,123.062,105.306z"/>
	<path style="fill:#FFFFFF;" d="M370.095,136.496c-1.974,0-3.679,0-5.749,0c0-9.743-0.121-19.326,0.056-28.904
		c0.078-4.215,3.612-1.521,5.693-2.934C370.095,115.612,370.095,125.907,370.095,136.496z"/>
</g>
</svg>
