<svg id="图层_1" data-name="图层 1" xmlns="http://www.w3.org/2000/svg" viewBox="0 0 140.55 140.58"><defs><style>.cls-1{fill:#fff;}.cls-2{fill:#00aff0;}.cls-3{fill:#034da2;}</style></defs><title>haiyisec_logo1</title><rect class="cls-1" x="38.24" y="40.82" width="102.31" height="99.76"/><path class="cls-2" d="M65.76,217H166.43l-50.7,60.88L132,291.68q7.63-9,15.25-17.95c3.32-3.92,6.46-8,10-11.72,2-2.11,4.62-2.83,7.28-.71q9.24,7.4,18.48,14.77c2.36,1.9,2.35,3.77.29,6.11-4,4.58-7.8,9.4-11.71,14.09-1.5,1.8-3.11,2.39-4.88-.32-4,4.53-7.82,8.89-11.58,13.34-.24.3.16,1.58.63,2,5.56,4.58,11.14,9.14,16.81,13.59,2.56,2,3.59-.85,4.69-2.07,3.86-4.31,7.49-8.83,11.16-13.31,5.11-6.24,10.21-12.49,15.23-18.82a6.19,6.19,0,0,0,1.33-3.38c.14-5.62-.12-11.26.15-16.87a6.51,6.51,0,0,0-2.76-5.71c-6.19-5.19-12.14-10.72-18.7-15.4-2.58-1.84-1.74-1.17-5-3.75-1.56-.13-3.55.05-8.56-.07a20.1,20.1,0,0,1,2.22-3.08c6.39-7.62,12.74-15.26,19.34-22.68a19.74,19.74,0,0,1,2.84-2.77c3.23,0,8.63,0,11.74,0" transform="translate(-65.76 -216.93)"/><path class="cls-3" d="M206.19,216.93v81.2l-2.61-1.88c-.29.15-.7.24-.91.5q-8.58,10.17-17.14,20.37c-2.47,2.92-5,5.77-7.46,8.71s-5.08,2.59-7.55.68c-5.65-4.35-11.07-9-16.62-13.49-2.26-1.83-2.64-3.24-.32-5.69,4.22-4.46,7.92-9.41,12-14.37,4.43,4.16,5.89-.52,7.95-2.52a90.73,90.73,0,0,0,7.12-8.48c1.61-2,1.84-3.58-.71-5.46-4.85-3.57-9.33-7.64-14-11.47-3.3-2.7-5.34-2.5-8,.66C147.39,278,137,290.38,126.27,302.44c-3.62,4.05-4.25,8.4-3.69,13.26a5.23,5.23,0,0,0,1.83,3c6.69,5.61,13.5,11.09,20.22,16.67,4.83,4,9.61,8.11,14.37,12.21.28.24.18.92.4,2.22-1.59-.57-3-.69-3.81-1.42-10.37-8.75-20.63-17.63-31-26.34a3.44,3.44,0,0,0-3.32,0c-3.83,4-7.49,8.22-11,12.53-.4.49.17,2.44.87,3.05,5.19,4.55,10.52,8.93,15.81,13.36,2.42,2,4.87,4,7.9,6.53H65.76V217H166.43l-50.7,60.88L132,291.68q7.63-9,15.25-17.95c3.32-3.92,6.46-8,10-11.72,2-2.11,4.62-2.83,7.28-.71q9.24,7.4,18.48,14.77c2.36,1.9,2.35,3.77.29,6.11-4,4.58-7.8,9.4-11.71,14.09-1.5,1.8-3.11,2.39-4.88-.32-4,4.53-7.82,8.89-11.58,13.34-.24.3.16,1.58.63,2,5.56,4.58,11.14,9.14,16.81,13.59,2.56,2,3.59-.85,4.69-2.07,3.86-4.31,7.49-8.83,11.16-13.31,5.11-6.24,10.21-12.49,15.23-18.82a6.19,6.19,0,0,0,1.33-3.38c.14-5.62-.12-11.26.15-16.87a6.51,6.51,0,0,0-2.76-5.71c-6.19-5.19-12.14-10.72-18.7-15.4-2.58-1.84-1.74-1.17-5-3.75-1.56-.13-3.55.05-8.56-.07a20.1,20.1,0,0,1,2.22-3.08c6.39-7.62,12.74-15.26,19.34-22.68a19.74,19.74,0,0,1,2.84-2.77C197.68,216.92,203.08,216.93,206.19,216.93Z" transform="translate(-65.76 -216.93)"/><path class="cls-3" d="M206.31,329.49v28H182.73l22.82-28.35Z" transform="translate(-65.76 -216.93)"/><path class="cls-3" d="M178.61,245.53c-3.55.05-3.55.05-8.56-.07a20.1,20.1,0,0,1,2.22-3.08" transform="translate(-65.76 -216.93)"/></svg>